<?xml version="1.0" encoding="utf-8"?>
<!-- Generator: Adobe Illustrator 21.0.2, SVG Export Plug-In . SVG Version: 6.00 Build 0)  -->
<svg version="1.1" id="Layer_1" xmlns="http://www.w3.org/2000/svg" xmlns:xlink="http://www.w3.org/1999/xlink" x="0px" y="0px"
	 viewBox="0 0 420.5 122.6" style="enable-background:new 0 0 420.5 122.6;" xml:space="preserve">
<style type="text/css">
	.st0{fill:#231815;}
	.st1{fill:#06A9DD;}
</style>
<g>
	<g>
		<polygon class="st0" points="273.1,0 273.1,12.5 253.8,12.5 253.8,26.5 267.6,26.5 267.6,39 253.8,39 253.8,53 273.1,53 
			273.1,65.6 241.1,65.6 241.1,0 		"/>
	</g>
	<g>
		<polygon class="st0" points="309.9,0 309.9,12.5 329.3,12.5 329.3,26.5 315.4,26.5 315.4,39 329.3,39 329.3,53 309.9,53 
			309.9,65.6 342,65.6 342,0 		"/>
	</g>
	<g>
		<polyline class="st1" points="298.2,26.5 285.7,26.5 285.7,39 298.2,39 		"/>
	</g>
	<g>
		<polygon class="st0" points="150,65.6 163.5,65.6 163.5,19.6 163.7,19.6 179.8,65.6 190.9,65.6 206.9,19.1 207.1,19.1 207.1,65.6 
			220.6,65.6 220.6,0 200.3,0 185.8,45.1 185.6,45.1 170.3,0 150,0 		"/>
	</g>
	<g>
		<path class="st0" d="M376.9,12.1h10.3c14.3,0,18.9,8.4,18.9,21.7c0,14.5-8,19.7-16.3,19.7h-12.9V12.1z M362.4,65.6h28.3
			c20,0,29.8-14.1,29.8-33.2c0-21.8-12.8-32.4-29.8-32.4h-28.3L362.4,65.6L362.4,65.6z"/>
	</g>
</g>
<g>
	<g>
		<path class="st0" d="M14.2,1.6v27.6L40.9,1.6h17.4L30.5,30.1l31.2,34.8H42.9L14.2,31.6v33.3H0V1.6H14.2z"/>
	</g>
	<g>
		<path class="st0" d="M66.4,33.2c0-11,2.8-19.3,8.5-24.9C80.6,2.8,88.6,0,98.7,0c10.2,0,18.2,2.8,23.8,8.3c5.6,5.6,8.5,13.9,8.5,25
			c0,11.1-2.8,19.4-8.5,24.9c-5.7,5.5-13.6,8.3-23.8,8.3c-10.2,0-18.1-2.8-23.8-8.3C69.3,52.7,66.4,44.4,66.4,33.2L66.4,33.2z
			 M79.3,33.2c0,7.5,1.7,13.2,5.2,17.1c3.5,3.9,8.2,5.9,14.2,5.9c6,0,10.8-2,14.2-5.9c3.5-3.9,5.2-9.6,5.2-17
			c0-7.5-1.7-13.2-5.2-17.1c-3.5-3.9-8.2-5.9-14.2-5.9c-6,0-10.7,2-14.2,5.9C81.1,20.1,79.3,25.8,79.3,33.2L79.3,33.2z"/>
	</g>
</g>
<g>
	<rect x="0" y="80.5" class="st0" width="20.5" height="3.4"/>
</g>
<g>
	<path d="M6.2,100v9.6l6.9-9.6h7.4l-7.7,9.6l8.4,12.5h-7.9l-7.2-11.8v11.8H0V100H6.2z"/>
	<path d="M28.6,111.3c0.1-3,0.9-5.7,2.4-8.1c1.5-2.4,4.6-3.6,9.4-3.6c0.1,0,0.2,0,0.4,0s0.2,0,0.3,0c2.7,0.1,5.1,0.9,7.3,2.5
		c2.2,1.5,3.3,4.6,3.3,9.1c0,0.6,0,1.2-0.1,1.9c-0.1,0.7-0.2,1.3-0.3,2c-0.5,1.9-1.5,3.7-3.1,5.3s-4.1,2.4-7.5,2.4
		c-4.6,0-7.7-1.1-9.3-3.3c-1.6-2.2-2.5-4.6-2.7-7.3c0-0.1,0-0.2,0-0.3C28.6,111.6,28.6,111.5,28.6,111.3L28.6,111.3z M35.1,111.1
		c0,1.8,0.4,3.5,1.3,5c0.9,1.5,2.2,2.3,4,2.3c1.6,0,2.8-0.6,3.6-1.8c0.8-1.2,1.2-3,1.2-5.4c0-1.9-0.4-3.6-1.2-5
		c-0.8-1.4-2.1-2.1-3.9-2.1c-1.8,0-3,0.7-3.8,2.2C35.6,107.6,35.2,109.3,35.1,111.1L35.1,111.1z"/>
	<path d="M70.2,100c0.1,0,0.2,0,0.3,0c0.1,0,0.2,0,0.3,0c2.1,0,4,0.4,5.7,1.2c1.7,0.8,2.6,2.3,2.6,4.6c0,1.8-0.5,3.1-1.6,3.9
		c-1,0.8-2.3,1.4-3.7,1.6c2.2,0.1,3.5,0.8,4,2.2c0.5,1.4,0.9,2.9,1,4.5c0,0,0,0.1,0,0.1c0,0,0,0.1,0,0.1c0.1,0.7,0.1,1.3,0.2,2
		c0.1,0.7,0.2,1.3,0.4,1.8h-6.7c-0.2-0.4-0.3-0.8-0.3-1.3c-0.1-0.5-0.1-1.1-0.1-1.6c0-0.1,0-0.2,0-0.4c0-0.1,0-0.2,0-0.4
		c-0.1-1.2-0.3-2.3-0.6-3.2c-0.3-1-1.1-1.5-2.3-1.5l-2.9,0v8.4h-6.2V100H70.2z M66.6,109.4H69c0.1,0,0.2,0,0.3,0s0.2,0,0.3,0
		c0.8,0,1.4-0.2,2.1-0.5c0.6-0.3,0.9-0.9,0.9-1.9c0-0.8-0.3-1.4-1-1.8c-0.7-0.4-1.5-0.6-2.4-0.6l-2.6,0V109.4z"/>
	<path d="M105.2,100v4.5H94.7v4.3h9.8v4.6h-9.8v4.3h10.5v4.3H88.4V100H105.2z"/>
	<path d="M129,100l8.7,22.1h-6.9l-1.5-4.1h-8.6l-1.4,4.1h-6.5l8.9-22.1H129z M124.9,104.6l-2.9,8.9h5.5L124.9,104.6z"/>
	<path d="M171.5,100l3.4,14.6l3.4-14.6h9.6v22.1h-5.3v-18.5l-5,18.5h-5.8l-4.8-18.5v18.5h-5.3V100H171.5z"/>
	<path d="M214.8,100v4.5h-10.5v4.3h9.8v4.6h-9.8v4.3h10.5v4.3H198V100H214.8z"/>
	<path d="M233.7,100c5,0,8.4,1.1,10.1,3.4s2.6,4.8,2.6,7.8c0,0.1,0,0.1,0,0.2s0,0.1,0,0.2c0,0.1,0,0.2,0,0.2s0,0.1,0,0.2
		c-0.1,3.5-1.2,6-3.4,7.6c-2.1,1.6-4.4,2.4-6.9,2.4h-11.8V100H233.7z M233.7,117.8c2,0,3.5-0.6,4.5-1.8c1-1.2,1.6-2.5,1.7-4
		c0-0.1,0-0.2,0-0.3s0-0.2,0-0.3c0-0.2,0-0.4,0-0.5c0-0.2,0-0.4-0.1-0.5c-0.2-1.4-0.9-2.7-1.9-3.9c-1.1-1.2-2.4-1.8-4-1.8l-3.4,0
		v13.2H233.7z"/>
	<path d="M261.6,100v22.1h-6.2V100H261.6z"/>
	<path d="M284.6,104.8c-0.7-0.6-1.6-0.9-2.8-0.9c-1.8,0-3,0.7-3.5,2.1c-0.5,1.4-0.8,2.9-0.8,4.6c0,0.2,0,0.3,0,0.5s0,0.4,0,0.5
		c0.1,2,0.5,3.7,1.1,4.9s1.7,1.8,3.2,1.8c1.3,0,2.3-0.4,2.9-1.1c0.6-0.7,0.9-1.5,0.9-2.3l6.5,0c0,0.3,0,0.7-0.1,1
		c0,0.3-0.1,0.7-0.2,1c-0.4,1.4-1.3,2.8-2.8,3.9s-3.7,1.8-6.8,1.8c-4.1,0-7-1-8.7-3s-2.7-4.6-2.8-7.8c0-0.1,0-0.2,0-0.3s0-0.2,0-0.3
		c0-4.2,1-7.2,3-9s4.7-2.7,8-2.7c3.7,0,6.4,0.7,8,2.1c1.6,1.4,2.4,3.2,2.4,5.3l-6.5,0C285.6,106.2,285.3,105.4,284.6,104.8z"/>
	<path d="M315.2,100l8.7,22.1h-6.9l-1.5-4.1h-8.6l-1.4,4.1h-6.5l8.9-22.1H315.2z M311.1,104.6l-2.9,8.9h5.5L311.1,104.6z"/>
	<path d="M338.3,100v17.5h9.8v4.6H332V100H338.3z"/>
	<path d="M377.7,109.2c0.2,0,0.3,0,0.5,0c0.2,0,0.3,0,0.5,0c0.2,0,0.3,0,0.5,0c1,0,1.8-0.1,2.6-0.4c0.7-0.3,1.2-0.9,1.2-2
		c0,0,0,0,0,0c0,0,0,0,0,0s0,0,0-0.1c0-0.6-0.2-1.1-0.8-1.4s-1.1-0.5-1.8-0.5c0,0-0.1,0-0.1,0s-0.1,0-0.1,0c-0.6,0-1.2,0.2-1.7,0.6
		c-0.5,0.3-0.8,0.8-0.9,1.5l-6,0c0-1.8,0.8-3.3,2.3-4.4c1.5-1.2,3.7-1.8,6.6-1.8c2.8,0,4.9,0.5,6.4,1.4s2.2,2.3,2.2,4.1
		c0,1.4-0.5,2.5-1.4,3.3c-0.9,0.8-2,1.3-3.1,1.6c-0.1,0-0.2,0-0.3,0.1c-0.1,0-0.2,0-0.3,0.1c1.9,0.2,3.3,0.9,4.2,1.9
		c0.9,1,1.3,2.2,1.3,3.7c0,1.8-0.8,3.2-2.5,4.3s-3.9,1.6-6.6,1.6s-5-0.5-6.7-1.6s-2.6-2.8-2.7-5.2l6,0c0.1,0.9,0.4,1.6,1.1,2
		c0.6,0.4,1.3,0.7,2.1,0.7c0.8,0,1.5-0.2,2.1-0.7c0.6-0.4,1-1.1,1-2c0-1.1-0.5-1.9-1.4-2.1c-0.9-0.3-2-0.5-3.1-0.5
		c-0.2,0-0.4,0-0.6,0c-0.2,0-0.4,0-0.6,0c-0.1,0-0.2,0-0.3,0c-0.1,0-0.2,0-0.3,0v-4.1C377.4,109.2,377.5,109.2,377.7,109.2z"/>
	<path d="M408.2,100c5,0,8.4,1.1,10.1,3.4c1.7,2.2,2.6,4.8,2.6,7.8c0,0.1,0,0.1,0,0.2s0,0.1,0,0.2c0,0.1,0,0.2,0,0.2s0,0.1,0,0.2
		c-0.1,3.5-1.2,6-3.4,7.6c-2.1,1.6-4.4,2.4-6.9,2.4h-11.8V100H408.2z M408.2,117.8c2,0,3.5-0.6,4.5-1.8c1-1.2,1.6-2.5,1.7-4
		c0-0.1,0-0.2,0-0.3s0-0.2,0-0.3c0-0.2,0-0.4,0-0.5c0-0.2,0-0.4-0.1-0.5c-0.2-1.4-0.9-2.7-1.9-3.9c-1.1-1.2-2.4-1.8-4-1.8l-3.4,0
		v13.2H408.2z"/>
</g>
</svg>
