<?xml version="1.0" encoding="utf-8"?>
<!-- Generator: Adobe Illustrator 16.0.0, SVG Export Plug-In . SVG Version: 6.00 Build 0)  -->
<!DOCTYPE svg PUBLIC "-//W3C//DTD SVG 1.1//EN" "http://www.w3.org/Graphics/SVG/1.1/DTD/svg11.dtd">
<svg version="1.1" id="Layer_1" xmlns="http://www.w3.org/2000/svg" xmlns:xlink="http://www.w3.org/1999/xlink" x="0px" y="0px"
	 width="229.063px" height="55.906px" viewBox="0 0 229.063 55.906" enable-background="new 0 0 229.063 55.906"
	 xml:space="preserve">
<g>
	<polygon fill="#FFFFFF" points="104.975,0.001 104.975,10.685 88.475,10.685 88.475,22.612 100.301,22.612 100.301,33.296 
		88.475,33.296 88.475,45.223 104.975,45.223 104.975,55.906 77.686,55.906 77.686,0.001 	"/>
	<polygon fill="#FFFFFF" points="134.813,0.001 134.813,10.685 151.313,10.685 151.313,22.612 139.486,22.612 139.486,33.296 
		151.313,33.296 151.313,45.223 134.813,45.223 134.813,55.906 162.102,55.906 162.102,0.001 	"/>
	<polyline fill="#00A9DD" points="125.592,22.618 114.924,22.618 114.924,33.285 125.592,33.285 	"/>
	<polygon fill="#FFFFFF" points="0,55.906 11.51,55.906 11.51,16.678 11.666,16.678 25.369,55.906 34.844,55.906 48.547,16.286 
		48.703,16.286 48.703,55.906 60.213,55.906 60.213,0 42.908,0 30.537,38.445 30.381,38.445 17.305,0 0,0 	"/>
	<path fill="#FFFFFF" d="M191.869,10.336h8.77c12.215,0,16.131,7.203,16.131,18.479c0,12.371-6.813,16.756-13.938,16.756h-10.963
		V10.336z M179.576,55.906h24.117c17.068,0,25.369-12.059,25.369-28.267C229.063,9.083,218.178,0,203.693,0h-24.117V55.906z"/>
</g>
</svg>
